<svg width="551" height="485" viewBox="0 0 551 485" fill="none" xmlns="http://www.w3.org/2000/svg">
<path d="M421.652 65.4681C426.118 66.2302 438.266 71.195 447.454 75.9579C450.565 77.605 453.937 79.1709 454.93 79.5004C456.143 79.9226 456.836 80.376 457.007 80.9916C457.142 81.5191 458.513 83.0808 460.036 84.4714C461.523 85.8612 464.084 88.8055 465.699 90.9846C467.315 93.1638 468.754 94.9455 468.94 94.95C469.088 94.9535 470.936 93.5999 473.05 91.9905C475.165 90.3375 477.124 89.0302 477.383 89.0364C477.679 89.0435 477.964 89.5308 478.097 90.1456C478.391 91.8126 477.288 102.27 476.524 104.785C475.597 107.908 476.089 112.114 477.598 114.116C478.21 114.873 478.771 116.197 478.899 117.03C479.028 117.863 479.302 118.787 479.48 119.097C479.874 119.674 482.359 135.066 482.325 136.507C482.267 137.379 482.267 137.379 481.767 136.581C481.481 136.137 480.795 133.849 480.257 131.521C479.279 127.479 478.197 124.701 478.124 126.185C478.116 126.534 478.629 129.866 479.209 133.506C480.994 144.12 481.061 147.485 479.394 142.815C478.7 140.832 478.262 140.56 478.043 141.996C477.955 142.562 477.61 141.505 477.287 139.488C476.381 134.006 475.713 130.932 475.417 130.925C475.269 130.921 474.984 133.536 474.834 136.677C474.539 141.257 474.226 143.521 473.205 147.472C469.601 161.801 466.663 185.45 466.236 203.263C466.053 212.475 465.955 213.478 465.252 214.99C463.609 218.576 460.502 221.428 457.709 221.973C457.04 222.088 454.903 223.085 453.024 224.176C449.942 225.981 449.382 226.142 447.161 226.045C439.607 225.777 430.174 217.295 430.98 211.505C431.113 210.591 431.683 208.464 432.316 206.775C433.388 203.787 433.389 203.743 432.862 200.979C432.108 196.898 426.673 177.766 425.105 173.579C423.953 170.624 423.382 169.693 421.895 168.347C420.879 167.449 419.547 165.801 418.908 164.65C418.268 163.499 417.341 161.992 416.803 161.236L415.872 159.86L414.46 161.573C412.246 164.272 406.911 173.493 403.48 180.575L400.322 187.095L400.066 197.791C399.785 209.535 399.986 211.986 401.891 222.21C403.731 232.039 404.128 235.587 403.981 241.699C403.826 249.733 402.699 253.463 397.178 264.251C395.585 267.358 394.253 270.341 394.241 270.864C394.194 272.829 397.338 276.18 404.323 281.633C406.578 283.391 410.827 287.031 413.728 289.721C419.06 294.567 424.04 298.617 428.16 301.468C434.612 305.947 438.979 310.857 440.178 314.948C442.333 322.469 441.078 326.895 432.368 342.412C424.045 357.284 419.547 367.136 416.686 376.721C413.583 387.131 412.428 388.938 406.863 392.299C405.134 393.306 401.441 395.839 398.612 397.912C395.82 399.985 392.957 401.926 392.282 402.259C391.607 402.593 388.93 402.965 386.332 403.122C383.325 403.312 379.939 403.886 376.955 404.688C370.651 406.372 369.317 406.384 368.245 404.698C366.101 401.371 367.042 396.151 371.485 387.041C374.447 380.952 376.291 378.244 378.246 377.068C380.915 375.472 383.788 374.667 386.715 374.737C388.752 374.786 389.795 374.549 391.409 373.714C394.449 372.126 394.678 371.826 393.323 371.138C392.372 370.635 392.194 370.325 392.329 369.324C392.465 368.278 392.618 368.107 393.767 368.091C394.471 368.108 395.286 368.084 395.51 368.046C396.18 367.931 396.136 366.663 395.439 366.34C394.524 365.882 395.612 365.34 397.427 365.383C399.241 365.427 400.678 364.238 402.53 361.181C403.186 360.104 404.261 358.557 404.91 357.743C405.56 356.929 405.91 356.238 405.691 356.102C405.471 356.009 404.96 355.647 404.597 355.333C403.944 354.749 404.099 354.491 406.879 351.369C409.886 348.033 410.432 346.911 409.099 346.879C408.099 346.855 408.141 346.637 409.904 344.19C410.863 342.858 411.45 341.562 411.467 340.82C411.485 340.078 412.071 338.825 412.991 337.536C414.833 334.916 416.084 332.194 417.684 327.296C418.565 324.521 418.777 323.434 418.446 323.295C416.795 322.601 413.156 321.378 407.895 319.767C401.86 317.962 396.316 315.776 389.425 312.597C387.189 311.539 384.651 310.736 382.583 310.424C378.67 309.806 375.732 308.688 370.095 305.713C365.521 303.289 364.563 303.047 363.611 304.117C361.021 307.025 357.584 323.673 354.213 349.934C353.942 351.98 353.481 357.298 353.152 361.746C352.575 370.382 352.3 372.559 350.603 381.517C349.201 388.997 348.313 402.911 348.145 420.773C347.944 438.46 348.177 439.558 353.251 447.411C356.97 453.091 358.915 456.982 360.719 462.136C361.587 464.559 363.234 468.53 364.363 470.916C365.528 473.346 366.689 475.952 366.929 476.744C367.377 478.152 367.375 478.24 366.394 478.959C364.356 480.482 346.782 479.276 342.454 477.381C340.4 476.458 339.467 475.213 338.033 471.64C337.37 469.921 336.454 467.933 336.026 467.224C334.99 465.583 333.523 461.878 333.227 460.299C333.131 459.641 332.705 458.888 332.341 458.617C331.318 457.981 330.737 459.016 330.365 462.196C330.08 464.81 330.042 464.853 329.627 463.62C329.422 462.872 329.099 460.899 328.953 459.235C328.661 455.952 328.123 453.668 326.086 447.416C325.395 445.303 324.651 442.314 324.428 440.824C324.174 439.027 323.827 438.057 323.459 437.961C322.611 437.766 322.468 435.972 322.61 428.505C322.749 422.699 322.692 421.999 322.228 422.774C320.804 425.011 320.537 425.311 320.285 424.999C319.817 424.42 320.863 420.994 323.103 415.631C324.281 412.863 325.189 410.57 325.117 410.481C325.045 410.392 324.634 410.513 324.219 410.809C323.769 411.06 323.433 411.139 323.436 411.008C323.44 410.877 324.406 409.197 325.563 407.303C328.417 402.653 328.102 401.903 324.722 405.317C323.392 406.683 323.438 406.291 324.975 404.012C325.474 403.282 325.872 402.155 325.887 401.544C325.923 400.016 327.196 396.377 328.232 394.917C329.345 393.327 329.015 393.145 327.279 394.457C326.524 395.051 331.155 393.724 325.548 395.551C325.548 395.551 326.857 393.53 328.842 391.087L332.433 386.63L332.033 381.641C331.839 378.928 331.446 375.205 331.155 373.407C330.805 370.996 330.731 364.835 330.82 350.247C331.071 318.103 330.93 314.692 329.158 302.025L328.266 295.932L326.036 296.185C322.618 296.54 315.577 298.075 308.116 300.124C298.641 302.693 296.859 302.825 279.605 302.15C266.867 301.67 263.982 301.427 259.63 300.536C251.481 298.812 243.701 295.612 233.208 289.638C231.636 288.727 230.134 287.992 229.838 287.985C229.208 287.97 223.25 295.341 221.473 298.356C220.739 299.606 219.443 302.676 218.641 305.19C216.515 311.954 213.82 319.272 212.098 323.075C208.03 332.02 204.653 336.832 195.057 347.566C190.564 352.57 187.625 356.169 187.613 356.649C187.565 357.128 186.156 361.769 184.438 366.97L181.284 376.417L183.151 378.951C184.193 380.331 186.269 383.394 187.732 385.745C189.232 388.096 191.242 390.852 192.217 391.924C195.106 395.094 209.491 407.233 213.867 410.221C216.091 411.759 218.861 413.704 219.953 414.516C222.538 416.457 226.391 421.179 226.612 422.757C227.322 427.186 230.451 434.25 233.821 439.005C236.294 442.515 238.923 447.252 239.684 449.542C240.063 450.73 240.179 453.616 240.112 461.084C240.055 466.543 240.101 472.354 240.211 473.973L240.4 476.904L239.157 477.748C237.461 478.931 235.425 478.838 231.901 477.4C225.11 474.704 216.488 466.416 216.069 462.213C215.976 461.468 215.9 458.452 215.858 455.568C215.842 448.491 214.93 446.328 213.861 450.759C213.368 452.756 212.732 453.003 212.775 451.213C212.814 449.598 211.55 443.539 210.648 440.984C209.535 437.943 207.547 434.27 205.857 432.089C204.778 430.753 204.231 430.347 203.561 430.505C202.816 430.662 202.454 430.304 201.355 428.181C199.617 424.95 197.348 422.188 196.385 422.165C195.978 422.155 194.959 421.344 194.13 420.364C193.087 419.072 192.576 418.71 192.382 419.099C192.15 419.486 191.424 418.857 189.802 416.94C187.028 413.597 183.294 410.145 176.643 404.656C168.029 397.592 165.899 396.754 165.812 400.422C165.79 401.338 165.088 405.865 164.273 410.519C162.437 420.653 162.083 424.576 162.275 432.051L162.4 437.689L166.248 442.586C172.972 451.222 176.669 457.775 176.592 461.006C176.554 462.577 177.288 464.43 179.7 468.943C180.694 470.758 181.5 472.699 181.487 473.267C181.447 474.926 180.032 475.198 171.212 475.205C160.28 475.162 156.924 474.47 154.803 471.711C153.689 470.286 152.37 466.542 152.41 464.883C152.443 463.486 151.625 462.068 150.13 461.028C149.657 460.667 149.388 459.525 149.086 456.634C148.842 454.444 148.19 450.716 147.617 448.343C147.045 445.927 146.518 443.162 146.43 442.199C146.171 439.092 146.001 438.432 145.516 438.552C145.182 438.587 145.042 436.706 144.987 431.244C144.936 427.18 144.796 423.726 144.651 423.591C144.543 423.458 144.279 423.67 144.083 424.102C143.852 424.49 143.547 424.832 143.362 424.827C142.954 424.818 143.851 421.432 145.159 417.881C145.752 416.323 146.404 413.848 146.626 412.325C146.848 410.801 147.218 409.281 147.485 408.938C148.328 407.779 147.24 408.321 146.135 409.605C144.533 411.488 144.281 411.177 145.597 408.849C146.254 407.729 146.691 406.517 146.587 406.208C146.483 405.9 146.688 405.075 147.001 404.384C147.821 402.656 147.755 402.305 146.675 402.541C146.042 402.657 145.749 402.519 145.759 402.082C145.778 401.296 147.751 397.849 148.622 397.04C149.532 396.188 150.981 392.946 151.754 390.082C152.651 386.652 153.623 378.551 154.349 368.346C155.259 355.088 155.703 353.57 160.049 348.52L162.679 345.481L162.944 334.392C163.291 319.897 162.962 316.613 160.716 311.361C159.803 309.243 157.827 305.089 156.378 302.171C150.823 291.161 149.2 287.715 147.139 282.468C142.768 271.53 140.355 262.43 139.45 253.803C138.873 248.459 139.054 230.073 139.697 226.419C139.953 225.028 139.925 224.634 139.654 225.108C138.23 227.345 134.22 247.78 132.192 262.846C129.932 279.828 125.962 295.503 120.285 309.739C116.145 320.123 106.519 336.755 100.065 344.725L98.1554 347.082L98.193 345.51C98.2212 344.332 98.4178 343.856 98.9025 343.736C100.283 343.333 102.899 337.804 101.714 337.775C101.01 337.759 93.2004 346.614 90.7813 350.138C88.3209 353.836 82.3521 360.114 75.8372 365.987C71.5968 369.729 69.9368 370.957 67.2767 372.16C66.2271 372.659 61.7186 375.215 57.3181 377.906C52.9187 380.553 48.898 382.859 48.3753 383.021C47.4801 383.262 47.4801 383.262 48.5793 382.24C49.1865 381.643 49.6086 381.041 49.4646 380.863C48.9977 380.24 45.7867 382.785 45.7616 383.832C45.7449 384.531 42.5527 386.289 38.6259 387.768C36.8684 388.425 33.95 389.578 32.1544 390.278C28.4128 391.761 23.4688 392.385 23.7902 391.344C23.8726 390.997 25.2619 390.244 26.8322 389.67C29.8617 388.519 30.2753 388.267 32.2526 386.174C33.8099 384.595 34.0264 383.289 32.5928 384.347C32.1019 384.729 30.9093 385.006 29.9833 384.984C29.0203 384.961 27.2679 385.399 25.9569 385.979C22.8841 387.391 17.0992 389.087 17.1107 388.607C17.1159 388.389 17.8786 387.49 18.8265 386.595C19.7734 385.744 20.5351 384.889 20.5393 384.714C20.5529 384.146 18.1954 385.095 16.274 386.403C15.2561 387.121 14.3557 387.58 14.2477 387.446C14.1397 387.313 14.3438 386.531 14.6959 385.754C15.3632 384.197 17.6347 382.198 19.9964 381.075C20.7826 380.745 21.3507 380.234 21.2088 379.969C20.8562 379.217 18.6275 379.426 16.3811 380.377C14.6215 381.121 14.213 381.155 13.9652 380.669C13.7174 380.182 12.9291 380.6 10.4005 382.506C8.59021 383.816 7.04655 384.828 6.93752 384.738C6.68556 384.426 7.81399 382.182 8.61271 381.327C9.02955 380.944 10.0083 380.312 10.8336 379.895L12.334 379.145L9.96969 378.826C7.86262 378.601 7.68058 378.465 8.24871 377.955C9.12046 377.146 10.0204 375.158 10.0476 374.023C10.0591 373.542 9.9944 373.148 9.92032 373.146C9.84625 373.144 8.68443 373.684 7.33325 374.395C4.70811 375.686 2.58541 376.116 2.3439 375.367C2.14047 374.576 5.91497 370.167 8.82447 367.834C10.2993 366.603 12.2671 364.902 13.178 364.007C14.0508 363.154 17.3761 360.482 20.547 358.068C29.4544 351.335 32.222 348.737 35.4821 344.141C39.1241 339.073 41.4134 336.332 42.0801 336.348C42.3764 336.355 41.6836 337.431 40.5411 338.714C39.4356 339.998 38.5555 341.156 38.6645 341.246C38.7354 341.379 40.5055 340.198 42.5814 338.632C45.0349 336.768 46.5509 335.363 46.9052 334.498C47.6518 332.725 48.5309 331.61 54.5586 324.416C62.2271 315.251 62.8766 314.437 67.4008 308.123C69.6635 304.945 71.7685 302.156 72.032 301.988C72.3325 301.82 72.5673 301.302 72.5777 300.865C72.6018 299.861 74.4179 296.759 76.5579 294.058C77.5131 292.858 78.4037 291.263 78.5686 290.568C78.6964 289.872 79.6652 288.104 80.7378 286.645C85.5297 279.989 91.183 269.859 97.4279 256.685C105.623 239.451 111.757 229.376 119.876 219.96C124.833 214.138 127.023 212.443 134.719 208.346C147.82 201.365 148.272 201.07 154.043 195.311C158.597 190.833 161.844 188.334 167.444 185.104C173.006 181.874 179.409 179.144 185.566 177.369L190.641 175.918L199.345 176.126C206.273 176.248 209.601 176.546 215.619 177.52C230.791 180.024 245.329 179.585 264.944 176.08C273.839 174.502 279.225 172.446 285.44 168.27C289.283 165.654 290.076 165.018 295.379 160.252C297.613 158.253 300.376 155.829 301.55 154.809C303.97 152.77 304.474 151.864 303.604 151.057C301.463 149.128 306.008 145.043 312.619 142.93C315.345 142.077 317.363 139.811 321.34 133.135C324.852 127.322 327.778 121.189 330.892 113.4C332.157 110.111 333.724 106.566 334.342 105.533C337.167 100.533 342.12 93.3129 344.557 90.6192C351.182 83.2206 362.304 75.318 370.572 72.1086C384.637 66.6354 409.917 63.3526 421.652 65.4681ZM122.073 300.04C121.818 301.432 121.848 301.695 122.229 301.267C122.875 300.627 124.201 296.291 123.955 295.76C123.672 295.186 122.419 297.995 122.073 300.04ZM53.5062 377.684C49.6498 380.868 49.9602 381.836 53.9543 379.092C56.666 377.279 59.6981 374.468 59.7128 373.857C59.7263 373.289 56.1152 375.518 53.5062 377.684ZM23.3165 375.52C22.3018 376.107 21.4702 376.786 21.465 377.004C21.4546 377.441 21.3424 377.482 23.7328 376.709C25.8237 376.06 26.6902 375.469 26.7059 374.814C26.7237 374.072 25.1226 374.383 23.3165 375.52ZM39.0517 385.463C38.29 386.318 38.2488 386.492 38.7673 386.504C39.1007 386.512 39.9302 385.921 40.6146 385.194C41.7932 383.956 41.8313 383.913 40.9361 384.154C40.4133 384.316 39.5838 384.908 39.0517 385.463ZM151.033 458.909L151.252 460.618L151.732 459.144C152.332 457.28 152.354 456.363 151.814 455.695C151.166 454.893 150.791 456.632 151.033 458.909Z" fill="url(#paint0_linear)"/>
<path d="M508.187 75.7262C512.116 72.8559 516.795 78.1659 513.453 81.7034L467.817 130.008C466.932 130.945 465.649 131.402 464.392 131.124C461.773 130.544 457.3 129.223 455.299 126.674C453.554 124.45 453.055 120.482 452.916 118.1C452.843 116.859 453.454 115.703 454.458 114.97L508.187 75.7262Z" fill="url(#paint1_linear)"/>
<rect x="431.668" y="27.6895" width="86.3295" height="124.698" rx="43.1648" transform="rotate(60 431.668 27.6895)" fill="white"/>
<path d="M379.168 53.118C395.079 38.838 420.098 42.8211 430.788 61.3358V61.3358C440.08 77.4307 434.566 98.0112 418.471 107.304L390.799 123.28C376.298 131.652 357.756 126.684 349.384 112.183V112.183C342.217 99.7701 344.722 84.0347 355.389 74.4609L379.168 53.118Z" fill="#DFE0F9"/>
<circle cx="389.02" cy="68.9265" r="39.9674" transform="rotate(60 389.02 68.9265)" fill="#650432"/>
<path d="M369.036 34.3145L390.619 71.6962L318.215 93.3697L305.349 71.0844L369.036 34.3145Z" fill="#650432"/>
<mask id="mask0" mask-type="alpha" maskUnits="userSpaceOnUse" x="305" y="34" width="86" height="75">
<path d="M369.037 34.3145L390.619 71.6962L318.216 93.3697L305.35 71.0844L369.037 34.3145Z" fill="#FF4E4E"/>
</mask>
<g mask="url(#mask0)">
<path d="M376.231 46.7754L361.044 20.4697L303.49 67.8631L312.544 83.5454L376.231 46.7754Z" fill="#77053B"/>
</g>
<ellipse cx="306.605" cy="86.0509" rx="19.9837" ry="19.1843" transform="rotate(60 306.605 86.0509)" fill="white"/>
<mask id="mask1" mask-type="alpha" maskUnits="userSpaceOnUse" x="334" y="14" width="110" height="110">
<circle cx="389.02" cy="68.9265" r="39.9674" transform="rotate(60 389.02 68.9265)" fill="#565988"/>
</mask>
<g mask="url(#mask1)">
<circle cx="393.137" cy="36.0902" r="37.5693" transform="rotate(60 393.137 36.0902)" fill="#77053B"/>
</g>
<defs>
<linearGradient id="paint0_linear" x1="283" y1="17.3237" x2="268.5" y2="435.824" gradientUnits="userSpaceOnUse">
<stop stop-color="#D7E3F4"/>
<stop offset="0.905451" stop-color="#8393D7"/>
</linearGradient>
<linearGradient id="paint1_linear" x1="515.799" y1="-2.82569" x2="462.5" y2="105" gradientUnits="userSpaceOnUse">
<stop stop-color="#A47D91"/>
<stop offset="1" stop-color="#BFC6E7"/>
</linearGradient>
</defs>
</svg>
