<svg id="Capa_1" enable-background="new 0 0 512 512" height="512" viewBox="0 0 512 512" width="512" xmlns="http://www.w3.org/2000/svg"><g><path d="m256 362-28.699 75 28.699 75c41.421 0 75-33.579 75-75s-33.579-75-75-75z" fill="#ff4725"/><path d="m181 437c0 41.421 33.579 75 75 75v-150c-41.421 0-75 33.579-75 75z" fill="#ff6c25"/><path d="m388.604 213.696c-6.73-29.563-23.495-56.39-47.203-75.542-24.072-19.445-54.401-30.154-85.401-30.154l-90 269h259.801z" fill="#ff6c25"/><path d="m170.599 138.154c-23.708 19.152-40.473 45.98-47.203 75.542l-37.197 163.304h169.801v-269c-31 0-61.329 10.709-85.401 30.154z" fill="#ff9024"/><path d="m482 422c0-41.355-33.645-75-75-75h-151l-60 52.5 60 52.5h226z" fill="#ff9024"/><path d="m105 347c-41.355 0-75 33.645-75 75v30h226v-105z" fill="#ffb524"/><path d="m366.433 43.385c-3.686-24.524-24.898-43.385-50.433-43.385-24.508 0-46.305 11.818-60 30.052l-45 107.948h129c28.122 0 51-22.878 51-51 0-18.043-9.549-34.501-24.567-43.615z" fill="#cf2731"/><path d="m196 0c-25.535 0-46.747 18.861-50.433 43.385-15.018 9.114-24.567 25.572-24.567 43.615 0 28.122 22.878 51 51 51h84v-107.948c-13.695-18.234-35.492-30.052-60-30.052z" fill="#ff2225"/><path d="m211 123 45 153.75 63 47.25v-201z" fill="#cf2731"/><path d="m193 123v201l63-47.25v-153.75z" fill="#ff2225"/><path d="m256 60-24.107 63 24.107 63c34.794 0 63-28.206 63-63s-28.206-63-63-63z" fill="#9f2c3c"/><path d="m193 123c0 34.794 28.206 63 63 63v-126c-34.794 0-63 28.206-63 63z" fill="#cf2731"/></g></svg>