<svg id="Flat" height="512" viewBox="0 0 512 512" width="512" xmlns="http://www.w3.org/2000/svg"><path d="m476.189 290.885c1.822-11.596 11.811-22.777 11.811-34.885s-9.989-23.289-11.812-34.886c-1.87-11.9 4.157-25.611.515-36.826-3.7-11.413-16.667-18.956-22.049-29.5-5.438-10.653-3.961-25.564-10.947-35.164-7.019-9.645-21.672-12.823-30.087-21.239s-11.594-23.067-21.239-30.085c-9.6-6.987-24.512-5.511-35.165-10.95-10.542-5.382-18.085-18.344-29.5-22.051-11.218-3.642-24.927 2.384-36.833.513-11.594-1.823-22.775-11.812-34.883-11.812s-23.289 9.989-34.885 11.811c-11.9 1.871-25.612-4.156-36.827-.514-11.413 3.705-18.956 16.667-29.5 22.049-10.653 5.438-25.564 3.961-35.164 10.947-9.642 7.019-12.824 21.672-21.235 30.087s-23.071 11.594-30.089 21.239c-6.987 9.6-5.511 24.512-10.95 35.164-5.382 10.542-18.344 18.086-22.05 29.5-3.643 11.217 2.383 24.927.512 36.833-1.823 11.595-11.812 22.776-11.812 34.884s9.989 23.289 11.812 34.885c1.87 11.9-4.157 25.612-.515 36.826 3.705 11.413 16.667 18.957 22.049 29.5 5.438 10.652 3.961 25.564 10.947 35.164 7.019 9.645 21.672 12.823 30.087 21.238s11.594 23.07 21.239 30.09c9.6 6.987 24.512 5.511 35.165 10.949 10.542 5.383 18.085 18.345 29.5 22.051 11.218 3.643 24.927-2.383 36.833-.513 11.594 1.821 22.775 11.81 34.883 11.81s23.289-9.989 34.885-11.812c11.9-1.87 25.612 4.157 36.827.515 11.413-3.7 18.956-16.667 29.5-22.049 10.653-5.438 25.564-3.961 35.164-10.947 9.645-7.019 12.823-21.673 21.238-30.088s23.071-11.593 30.09-21.238c6.987-9.6 5.511-24.512 10.95-35.165 5.382-10.542 18.344-18.086 22.05-29.5 3.64-11.216-2.386-24.925-.515-36.831zm-101.37-3.042c-2.866 10.721-2.52 22.783-7.951 32.171-5.51 9.521-16.181 15.22-23.91 22.948s-13.426 18.4-22.948 23.907c-9.387 5.431-21.448 5.084-32.169 7.95-10.362 2.77-20.605 9.181-31.841 9.181s-21.48-6.412-31.843-9.182c-10.722-2.865-22.783-2.519-32.171-7.95-9.522-5.51-15.22-16.182-22.948-23.91s-18.4-13.426-23.908-22.948c-5.43-9.387-5.084-21.448-7.949-32.169-2.77-10.362-9.181-20.605-9.181-31.841s6.411-21.48 9.181-31.843c2.866-10.722 2.52-22.783 7.951-32.171 5.51-9.522 16.181-15.221 23.91-22.948s13.426-18.4 22.948-23.908c9.387-5.431 21.448-5.084 32.169-7.949 10.362-2.77 20.605-9.181 31.841-9.181s21.48 6.411 31.843 9.181c10.722 2.866 22.783 2.52 32.171 7.951 9.522 5.51 15.22 16.181 22.948 23.91s18.4 13.426 23.908 22.948c5.43 9.386 5.084 21.448 7.949 32.169 2.77 10.362 9.181 20.605 9.181 31.841s-6.411 21.479-9.181 31.843z" fill="#326859"/><path d="m240 144 40-40 120 113.333-40 46.667z" fill="#ef4037"/><path d="m272 144-40-40-120 113.333 40 46.667z" fill="#ef4037"/><path d="m232 104h48v48h-48z" fill="#ef4037"/><path d="m152 152h80v-48l-64-16z" fill="#dc2027"/><path d="m360 152h-80v-48l64-16z" fill="#dc2027"/><circle cx="80" cy="256" fill="#f7cc38" r="16"/><circle cx="432" cy="256" fill="#f7cc38" r="16"/><circle cx="352" cy="408" fill="#f7cc38" r="16"/><circle cx="160" cy="408" fill="#f7cc38" r="16"/><g fill="#fff"><circle cx="104" cy="344" r="8"/><circle cx="104" cy="152" r="8"/><circle cx="256" cy="440" r="8"/><circle cx="416" cy="344" r="8"/><circle cx="408" cy="152" r="8"/></g><path d="m248 25.347v78.653h16v-78.653a24.43 24.43 0 0 0 -16 0z" fill="#dc2027"/></svg>