<?xml version="1.0" encoding="iso-8859-1"?>
<!-- Generator: Adobe Illustrator 19.0.0, SVG Export Plug-In . SVG Version: 6.00 Build 0)  -->
<svg version="1.1" id="Capa_1" xmlns="http://www.w3.org/2000/svg" xmlns:xlink="http://www.w3.org/1999/xlink" x="0px" y="0px"
	 viewBox="0 0 512.021 512.021" style="enable-background:new 0 0 512.021 512.021;" xml:space="preserve">
<path style="fill:#43A047;" d="M508.709,232.816c4.267-4.062,4.433-10.814,0.371-15.08c-1.953-2.052-4.643-3.242-7.475-3.309
	c-21.589-0.512-21.589-30.955-21.589-32.213c0.046-3.935-2.077-7.576-5.525-9.472l-103.104-56.747
	c-3.813-2.11-8.526-1.687-11.904,1.067l-82.645,67.392c-4.11,3.364-5.12,9.239-2.368,13.781l25.771,42.667
	c0.482,0.783,1.063,1.5,1.728,2.133c12.109,13.958,18.294,32.09,17.237,50.539c0.05,29.076-11.725,56.922-32.619,77.141
	c-4.266,4.062-4.432,10.814-0.37,15.08c1.433,1.505,3.274,2.559,5.298,3.032c15.201,6.461,27.395,18.434,34.133,33.515
	c14.051,22.273,19.567,48.878,15.531,74.901c-1.866,5.588,1.151,11.63,6.738,13.496c4.881,1.63,10.231-0.457,12.718-4.963
	c17.237-30.805,45.419-56.811,64.192-59.157c3.866-0.868,7.906,0.336,10.667,3.179c4.062,4.267,10.814,4.433,15.08,0.371
	c2.052-1.953,3.242-4.643,3.309-7.475c0-2.133,0-4.416,0-6.997c-2.583-28.224,8.183-56.032,29.099-75.157
	c4.271-4.057,4.444-10.809,0.387-15.08c-0.001-0.001-0.002-0.002-0.003-0.003c-9.698-15.237-12.136-33.99-6.656-51.2
	C481.129,271.085,492.256,249.721,508.709,232.816z"/>
<path style="fill:#4CAF50;" d="M337.637,152.646c-3.649-3.038-8.866-3.299-12.8-0.64l-30.997-46.528
	c0.491-0.448,1.259-0.747,1.728-1.195c4.237-4.092,4.355-10.845,0.262-15.083s-10.845-4.355-15.083-0.262
	c-0.089,0.086-0.176,0.173-0.262,0.262c-16.939,16.939-100.907,11.328-113.067-0.213c-4.234-4.096-10.987-3.984-15.083,0.249
	c-2.057,2.126-3.138,5.01-2.986,7.964c-1.579,24.527-12.225,47.591-29.867,64.704c-16.885,18.909-40.794,30.054-66.133,30.827
	c-5.891,0.003-10.664,4.781-10.662,10.672c0.001,2.075,0.607,4.105,1.744,5.84c6.543,15.171,7.115,32.255,1.6,47.829
	c-5.193,25.812-19.544,48.876-40.405,64.939c-5.191,2.785-7.142,9.251-4.357,14.442c2.417,4.505,7.689,6.661,12.57,5.142
	c33.749-10.432,72.064-9.792,87.296,1.451c3.409,2.043,5.51,5.711,5.547,9.685c-0.034,4.348,2.574,8.281,6.592,9.941
	c1.291,0.538,2.676,0.813,4.075,0.811c2.831,0.005,5.548-1.115,7.552-3.115c1.451-1.451,3.072-3.179,4.843-5.077
	c17.553-22.314,44.553-35.107,72.939-34.56c5.891,0,10.667-4.776,10.667-10.667c0-26.432,49.643-64,96-64
	c5.891,0.011,10.675-4.757,10.686-10.648c0.005-2.84-1.123-5.565-3.134-7.571c-12.117-12.117,9.493-45.781,21.867-60.16
	C342.607,163.22,342.101,156.487,337.637,152.646z"/>
<g>
	<path style="fill:#388E3C;" d="M138.682,256.731c-5.891-0.011-10.657-4.796-10.646-10.687c0.006-3.111,1.37-6.064,3.734-8.086
		c4.267-3.605,104.064-88.427,152.171-108.416c5.467-2.25,11.723,0.357,13.973,5.824c2.25,5.467-0.357,11.723-5.824,13.973l0,0
		c-45.013,18.688-145.472,104.064-146.496,104.917C143.656,255.873,141.206,256.75,138.682,256.731z"/>
	<path style="fill:#388E3C;" d="M385.104,361.2c-5.462,0.033-10.066-4.065-10.667-9.493c-0.448-4.267-11.115-103.893,10.411-152.619
		c1.99-5.545,8.098-8.426,13.643-6.436c5.545,1.99,8.426,8.098,6.436,13.643c-0.163,0.455-0.357,0.898-0.58,1.326
		c-19.2,43.477-8.811,140.672-8.704,141.653c0.648,5.855-3.573,11.127-9.428,11.776c0,0-0.001,0-0.001,0L385.104,361.2z"/>
</g>
<path style="fill:#E53935;" d="M448.016,0.731c-28.977,0.092-54.276,19.642-61.675,47.659c-1.091,4.114,0.368,8.482,3.712,11.115
	l76.651,60.288c1.885,1.483,4.215,2.287,6.613,2.283c1.774-0.005,3.52-0.452,5.077-1.301c31.046-16.699,42.676-55.404,25.977-86.45
	C493.219,13.59,471.559,0.678,448.016,0.731z"/>
<circle style="fill:#D32F2F;" cx="352.016" cy="96.731" r="74.667"/>
<circle style="fill:#F44336;" cx="416.016" cy="139.398" r="74.667"/>
<g>
</g>
<g>
</g>
<g>
</g>
<g>
</g>
<g>
</g>
<g>
</g>
<g>
</g>
<g>
</g>
<g>
</g>
<g>
</g>
<g>
</g>
<g>
</g>
<g>
</g>
<g>
</g>
<g>
</g>
</svg>
