<svg id="Color" enable-background="new 0 0 24 24" height="512" viewBox="0 0 24 24" width="512" xmlns="http://www.w3.org/2000/svg"><path d="m14.25 5.456c-.414 0-.75-.336-.75-.75v-2.106c0-.578-.471-1.05-1.05-1.05h-.9c-.579 0-1.05.472-1.05 1.05v2.106c0 .414-.336.75-.75.75s-.75-.336-.75-.75v-2.106c0-1.406 1.144-2.55 2.55-2.55h.9c1.406 0 2.55 1.143 2.55 2.55v2.106c0 .414-.336.75-.75.75z" fill="#607d8b"/><path d="m22 14.05v.141c-.01.649-.08 1.279-.21 1.899-.11.521-.26 1.03-.45 1.521-1.44 3.759-5.09 6.439-9.34 6.439s-7.9-2.68-9.34-6.439c-.19-.49-.34-1-.45-1.521-.13-.62-.2-1.25-.21-1.9v-.14c0-.62.06-1.229.17-1.819.86-4.651 4.94-8.181 9.83-8.181 4.88 0 8.97 3.53 9.83 8.17.11.59.17 1.21.17 1.83z" fill="#66bb6a"/><path d="m22 14.05v.141l-3.59-2.57-2.47 2.47c-.28.28-.72.3-1.02.04l-2.92-2.501-2.92 2.5c-.3.26-.74.24-1.02-.04l-2.47-2.47-3.59 2.57v-.14c0-.62.06-1.229.17-1.819l3.06-2.2c.3-.21.71-.181.97.08l2.43 2.43 2.88-2.47c.28-.24.7-.24.98 0l2.88 2.47 2.43-2.43c.26-.261.67-.29.97-.08l3.06 2.189c.11.59.17 1.21.17 1.83z" fill="#ef5350"/><path d="m21.79 16.09c-.11.521-.26 1.03-.45 1.521l-2.93-2.091-2.47 2.471c-.28.279-.72.29-1.02.04l-2.92-2.511-2.92 2.51c-.3.25-.74.239-1.02-.04l-2.47-2.47-2.93 2.09c-.19-.49-.34-1-.45-1.521l3.03-2.16c.29-.22.7-.18.96.08l2.43 2.431 2.88-2.471c.28-.239.7-.239.98 0l2.88 2.471 2.43-2.431c.26-.26.67-.3.96-.08z" fill="#ef5350"/><path d="m12 .05h-.45c-1.406 0-2.55 1.143-2.55 2.55v1.91c.485-.153.986-.27 1.5-.348v-1.562c0-.578.471-1.05 1.05-1.05h.45z" fill="#546d79"/><path d="m5.59 11.62-3.59 2.57v-.14.141c.01.649.08 1.279.21 1.899.11.521.26 1.03.45 1.521 1.44 3.759 5.09 6.439 9.34 6.439v-8.53l-2.92 2.51c-.143.119-.317.179-.491.179-.191 0-.382-.073-.529-.219l-2.47-2.47-2.93 2.09c-.19-.49-.34-1-.45-1.521l3.03-2.16c.127-.096.277-.143.427-.143.193 0 .387.077.533.223l2.43 2.431 2.88-2.471c.14-.12.315-.179.49-.179v-2.16l-2.92 2.5c-.142.123-.315.183-.487.183-.193 0-.385-.075-.533-.223zm6.41-7.57c-.51 0-1.011.038-1.5.112-.514.078-1.015.195-1.5.348-3.486 1.1-6.153 4.064-6.83 7.721l3.06-2.2c.133-.093.287-.139.44-.139.193 0 .385.073.53.219l2.43 2.43 2.88-2.47c.14-.12.315-.18.49-.18z" fill="#59a35c"/><g fill="#d04846"><path d="m12 9.89c-.175 0-.35.06-.49.18l-2.88 2.47-2.43-2.43c-.145-.145-.337-.219-.53-.219-.153 0-.307.046-.44.139l-3.06 2.2c-.11.59-.17 1.2-.17 1.82v.141l3.59-2.57 2.47 2.47c.148.148.34.223.533.223.173 0 .346-.06.487-.183l2.92-2.5z"/><path d="m5.667 13.787c-.15 0-.3.046-.427.143l-3.03 2.16c.11.521.26 1.03.45 1.521l2.93-2.091 2.47 2.471c.147.146.337.219.529.219.174 0 .349-.06.491-.179l2.92-2.511v-1.73c-.175 0-.35.06-.49.179l-2.88 2.471-2.43-2.43c-.146-.146-.34-.223-.533-.223z"/></g></svg>